<?xml version="1.0" standalone="no"?>
        <!DOCTYPE svg PUBLIC "-//W3C//DTD SVG 1.1//EN" 
        "http://www.w3.org/Graphics/SVG/1.1/DTD/svg11.dtd">  <svg xmlns="http://www.w3.org/2000/svg" xmlns:xlink="http://www.w3.org/1999/xlink" width="40" zoomAndPan="magnify" viewBox="0 0 30 30.000001" height="40" preserveAspectRatio="xMidYMid meet" version="1.0"><defs><clipPath id="id1"><path d="M 19 6.132812 L 27.714844 6.132812 L 27.714844 24.277344 L 19 24.277344 Z M 19 6.132812 " clip-rule="nonzero"/></clipPath><clipPath id="id2"><path d="M 2.308594 6.132812 L 11 6.132812 L 11 24.277344 L 2.308594 24.277344 Z M 2.308594 6.132812 " clip-rule="nonzero"/></clipPath><clipPath id="id3"><path d="M 10 6.132812 L 20 6.132812 L 20 24.277344 L 10 24.277344 Z M 10 6.132812 " clip-rule="nonzero"/></clipPath></defs><g clip-path="url(#id1)"><path fill="rgb(80.778503%, 16.859436%, 21.569824%)" d="M 27.703125 21.488281 C 27.703125 23.027344 26.441406 24.277344 24.882812 24.277344 L 19.242188 24.277344 L 19.242188 6.132812 L 24.882812 6.132812 C 26.441406 6.132812 27.703125 7.382812 27.703125 8.925781 Z M 27.703125 21.488281 " fill-opacity="1" fill-rule="nonzero"/></g><g clip-path="url(#id2)"><path fill="rgb(0%, 57.249451%, 27.449036%)" d="M 5.140625 6.132812 C 3.582031 6.132812 2.320312 7.382812 2.320312 8.925781 L 2.320312 21.488281 C 2.320312 23.027344 3.582031 24.277344 5.140625 24.277344 L 10.78125 24.277344 L 10.78125 6.132812 Z M 5.140625 6.132812 " fill-opacity="1" fill-rule="nonzero"/></g><g clip-path="url(#id3)"><path fill="rgb(93.328857%, 93.328857%, 93.328857%)" d="M 10.78125 6.132812 L 19.242188 6.132812 L 19.242188 24.277344 L 10.78125 24.277344 Z M 10.78125 6.132812 " fill-opacity="1" fill-rule="nonzero"/></g></svg>  